<?xml version="1.0" encoding="utf-8"?>
<!-- Generator: Adobe Illustrator 27.8.1, SVG Export Plug-In . SVG Version: 6.00 Build 0)  -->
<svg version="1.1" id="Calque_1" xmlns="http://www.w3.org/2000/svg" xmlns:xlink="http://www.w3.org/1999/xlink" x="0px" y="0px"
	 viewBox="0 0 253.5 127.1" style="enable-background:new 0 0 253.5 127.1;" xml:space="preserve">
<style type="text/css">
	.st0{fill:#D59A10;stroke:#D59A10;stroke-miterlimit:10;}
	.st1{fill:#33AC63;stroke:#33AC63;stroke-miterlimit:10;}
	.st2{fill:#33AC63;stroke:#32AC63;stroke-miterlimit:10;}
	.st3{fill:#D69A10;stroke:#D59A10;stroke-width:0.25;stroke-miterlimit:10;}
	.st4{fill:#D69A10;stroke:#D69A10;stroke-width:0.25;stroke-miterlimit:10;}
</style>
<path class="st0" d="M1.7,123.1c20-3.7,35.5-2.7,46-1.1c11,1.7,13,3.4,23,4.2c7.1,0.6,24.3,1.1,42.9-6.3
	c24.1-9.6,40.3-28.3,38.7-30.7c-1.6-2.3-20.9,11.5-56.5,20.1c-20.4,4.9-27,3.5-29.3,0c-2.2-3.4-1.1-9.7,2.1-12.7
	c2.8-2.6,5.5-1.3,11.5-3.2c6.2-1.9,13.1-6.3,12.6-8.5C92,82,75.4,81.8,60.3,86.1C49.4,89.2,42,93.9,31,100.9
	C23.2,105.9,13,113.1,1.7,123.1z"/>
<path class="st0" d="M251.8,122.9c-20-3.6-35.6-2.6-46.2-1.1c-11,1.7-13,3.4-23.1,4.2c-7.2,0.6-24.4,1.1-43.1-6.3
	c-24.2-9.5-40.4-28-38.9-30.3c1.6-2.3,21,11.4,56.7,19.9c20.5,4.9,27.1,3.5,29.4,0c2.2-3.3,1.1-9.6-2.1-12.6
	c-2.8-2.6-5.5-1.3-11.6-3.1c-6.3-1.9-13.1-6.3-12.6-8.4c0.7-3,17.4-3.2,32.6,1.1c10.9,3.1,18.4,7.7,29.4,14.7
	C230.2,105.9,240.5,113,251.8,122.9L251.8,122.9z"/>
<ellipse class="st1" cx="125.8" cy="81.8" rx="11.9" ry="4.8"/>
<path class="st1" d="M53.7,63.1c0.2-1.5,6.5-2,10.1-2.2c10.3-0.7,16.4-1.2,24.1,1.2c11.8,3.6,19.9,11.6,19.4,12.3
	c-0.1,0.2-1-0.2-9.2-3.2c-4.8-1.8-6.9-2.5-9.9-2.9c-2.7-0.4-6.6-0.6-6.7,0.1c-0.2,0.9,7.4,3.2,11.3,4.4c5.6,1.7,10.4,2.9,13.9,3.6
	c-0.7,0.9-1.5,1.3-1.8,1.6c-3.1,2.7-15.1,0.8-15.2,0.8l0,0c-6.3-0.6-11.4-3.1-12.6-3.7c-12.9-6.4-11.4-6-15.1-7.7
	C56.4,64.8,53.6,64.1,53.7,63.1L53.7,63.1z"/>
<path class="st1" d="M118.1,66c-0.4,1.2-13-0.9-24.8-8.2c-1.5-0.9-2.6-1.7-4.1-2.8c-9.2-6.5-10.7-9.7-17.5-14.2
	c-6.2-4-9.1-4.2-9-5.2c0.4-2.4,18.3-2.8,35.1,3.2c12.8,4.6,17.4,10.1,18.9,12.2c4,5.4,6.3,12.4,5.1,13.2c-0.8,0.5-2.8-2-6.9-5.4
	C106.8,52,98.4,48.2,98,48.7c-0.4,0.6,8.7,9,17.9,15.4C117.2,65,118.2,65.6,118.1,66L118.1,66z"/>
<path class="st2" d="M207,63.9c0-1.5-7.1-2-11.2-2.3c-11.6-0.9-18.4-1.4-27.3,0.7c-13.6,3.3-23.6,10.8-23.1,11.5
	c0.1,0.2,1.1-0.2,10.6-3c5.6-1.6,8.1-2.3,11.5-2.7c3.1-0.3,7.5-0.5,7.6,0.2c0.1,0.9-8.6,3-13.2,4.1c-6.5,1.6-12,2.6-16,3.3
	c0.7,0.8,1.5,1.3,1.9,1.6c3.2,2.7,17,1,17,1l0,0c7.2-0.5,13.1-2.8,14.6-3.3c15.2-6,13.4-5.6,17.8-7.1C203.7,65.5,207,64.9,207,63.9
	L207,63.9z"/>
<path class="st1" d="M136.4,66c0.4,1.2,11.9-0.9,22.8-8.2c1.4-0.9,2.4-1.7,3.8-2.8c8.5-6.5,9.8-9.7,16.1-14.2c5.6-4,8.4-4.2,8.2-5.2
	c-0.4-2.4-16.8-2.8-32.3,3.2c-11.8,4.6-16,10.1-17.4,12.2c-3.7,5.4-5.8,12.4-4.7,13.2c0.7,0.5,2.6-2,6.3-5.4
	c7.5-6.8,15.2-10.6,15.6-10.1c0.4,0.6-8,9-16.5,15.4C137.2,65,136.3,65.6,136.4,66L136.4,66z"/>
<path class="st2" d="M130.2,54.1c1.3,0.4,2.4-8.1,8.8-11c1.7-0.8,3.8-1.2,5.2-3.2c1.3-1.9,1.3-4,1.3-4.2c-0.1-1.5-0.6-2.5-0.8-3
	c-2.2-4.2-6.1-9.1-8.2-13c-2.1-3.8-4.7-10.6-6-16.1c-0.2-0.8-0.7-3.1-1.5-3.2c-0.8,0-1.4,1.9-1.8,3.2c-1.1,4.4-2.9,10.1-6.3,16.2
	c-2.5,4.4-5.2,8-7.6,10.7c-0.4,0.9-0.8,2.1-0.9,3.7c-0.2,2.3,0.2,4.1,0.5,5.3c0,0,0,0,0,0c2.4,1.6,4.2,2.8,4.3,2.8
	c3.1,2.1,8.5,12.6,9.9,12.1c0.6-0.2,0.2-2.2-0.1-6.5c0,0-0.3-5.4,0-12.9c0.1-1.9,0.5-10.1,1.3-10.1c0.7,0,1.6,5.6,1.9,10.1
	c0.3,4.8,0.1,10.5,0.1,12.4C129.8,52,129.6,53.9,130.2,54.1z"/>
<path class="st3" d="M189.7,40.3c0.1,0,0,1.5,0.4,3.5c0.2,1.2,0.3,1.8,0.6,2.4c1.5,3,7.7,2.7,7.6,3.1c0,0.2-1.7,0.1-4.1,0.9
	c-1.8,0.6-2.5,1.1-2.9,1.7c-0.4,0.5-0.6,1-0.9,1.8c-0.7,2-0.7,3.5-0.9,3.5c-0.2,0,0-1.5-0.7-3.5c-0.3-0.8-0.4-1.3-0.9-1.8
	c-0.2-0.2-0.9-1.1-3.2-1.8c-2.1-0.6-3.7-0.5-3.7-0.7c0-0.2,2.2-0.1,4.6-1.3c2.1-1,2.7-2.2,2.8-2.4c0.2-0.4,0.3-0.9,0.5-2
	C189.5,41.7,189.6,40.3,189.7,40.3L189.7,40.3z"/>
<path class="st3" d="M158.9,13.8c0.1,0,0,1.5,0.4,3.5c0.2,1.1,0.3,1.8,0.6,2.4c1.5,3,7.7,2.7,7.6,3.1c0,0.2-1.7,0.1-4.1,0.9
	c-1.8,0.6-2.5,1.1-2.9,1.7c-0.4,0.5-0.6,1-0.9,1.8c-0.7,2-0.7,3.5-0.9,3.5c-0.2,0,0-1.5-0.7-3.5c-0.3-0.8-0.4-1.3-0.9-1.8
	c-0.2-0.2-0.9-1.1-3.2-1.8c-2.1-0.6-3.7-0.5-3.7-0.6c0-0.2,2.2-0.1,4.6-1.3c2.1-1,2.7-2.1,2.8-2.4c0.2-0.4,0.3-0.9,0.5-2
	C158.7,15.1,158.8,13.8,158.9,13.8L158.9,13.8z"/>
<path class="st4" d="M100.5,13.8c0.1,0,0,1.5,0.4,3.5c0.2,1.1,0.3,1.8,0.6,2.4c1.5,3,7.7,2.7,7.7,3.1c0,0.2-1.7,0.1-4.2,0.9
	c-1.8,0.6-2.5,1.1-2.9,1.7c-0.4,0.5-0.6,1-0.9,1.8c-0.7,2-0.7,3.5-0.8,3.5c-0.2,0,0-1.5-0.7-3.5c-0.3-0.8-0.4-1.3-0.8-1.8
	c-0.2-0.2-0.9-1.1-3.2-1.8c-2.1-0.6-3.7-0.5-3.7-0.6c0-0.2,2.2-0.1,4.6-1.3c2.1-1,2.7-2.1,2.8-2.4c0.2-0.4,0.3-0.9,0.5-2
	C100.3,15.1,100.4,13.8,100.5,13.8L100.5,13.8z"/>
<path class="st3" d="M62.7,40.3c0.1,0,0,1.5,0.4,3.5c0.2,1.2,0.3,1.8,0.6,2.4c1.5,3,7.7,2.7,7.7,3.1c0,0.2-1.7,0.1-4.2,0.9
	c-1.8,0.6-2.5,1.1-2.9,1.7c-0.4,0.5-0.5,1-0.9,1.8c-0.7,2-0.7,3.5-0.8,3.5c-0.2,0,0-1.5-0.7-3.5c-0.3-0.8-0.4-1.3-0.8-1.8
	c-0.2-0.2-0.9-1.1-3.2-1.8c-2.1-0.6-3.7-0.5-3.7-0.7c0-0.2,2.2-0.1,4.6-1.3c2.1-1,2.7-2.2,2.8-2.4c0.2-0.4,0.3-0.9,0.5-2
	C62.5,41.7,62.6,40.3,62.7,40.3L62.7,40.3z"/>
</svg>
